HIERARCHY
ROOT mixamorig:Hips
{
	OFFSET -0.000000 103.991470 2.076077
	CHANNELS 6 Xposition Yposition Zposition Xrotation Yrotation Zrotation
	JOINT mixamorig:Spine
	{
		OFFSET 0.000009 10.181587 0.131521
		CHANNELS 6 Xposition Yposition Zposition Xrotation Yrotation Zrotation
		JOINT mixamorig:Spine1
		{
			OFFSET 0.000000 10.083450 -1.000804
			CHANNELS 6 Xposition Yposition Zposition Xrotation Yrotation Zrotation
			JOINT mixamorig:Spine2
			{
				OFFSET 0.000000 9.100014 -1.373417
				CHANNELS 6 Xposition Yposition Zposition Xrotation Yrotation Zrotation
				JOINT mixamorig:Neck
				{
					OFFSET 0.000001 16.671661 -2.516168
					CHANNELS 6 Xposition Yposition Zposition Xrotation Yrotation Zrotation
					JOINT mixamorig:Head
					{
						OFFSET -0.000000 9.617889 1.685008
						CHANNELS 6 Xposition Yposition Zposition Xrotation Yrotation Zrotation
						JOINT mixamorig:HeadTop_End
						{
							OFFSET -0.000001 17.815155 2.584985
							CHANNELS 6 Xposition Yposition Zposition Xrotation Yrotation Zrotation
							End Site
							{
								OFFSET 0.000000 13.794479 0.000000
							}
						}
						JOINT mixamorig:LeftEye
						{
							OFFSET 3.067561 6.409500 9.283554
							CHANNELS 6 Xposition Yposition Zposition Xrotation Yrotation Zrotation
							End Site
							{
								OFFSET 0.000000 13.794479 0.000000
							}
						}
						JOINT mixamorig:RightEye
						{
							OFFSET -3.067550 6.409500 9.283547
							CHANNELS 6 Xposition Yposition Zposition Xrotation Yrotation Zrotation
							End Site
							{
								OFFSET 0.000000 13.794479 0.000000
							}
						}
					}
				}
				JOINT mixamorig:LeftShoulder
				{
					OFFSET 4.570446 10.945984 -2.627988
					CHANNELS 6 Xposition Yposition Zposition Xrotation Yrotation Zrotation
					JOINT mixamorig:LeftArm
					{
						OFFSET 10.592371 -0.524582 -2.232120
						CHANNELS 6 Xposition Yposition Zposition Xrotation Yrotation Zrotation
						JOINT mixamorig:LeftForeArm
						{
							OFFSET 27.841522 -0.000092 0.000038
							CHANNELS 6 Xposition Yposition Zposition Xrotation Yrotation Zrotation
							JOINT mixamorig:LeftHand
							{
								OFFSET 28.328835 -0.000015 0.000038
								CHANNELS 6 Xposition Yposition Zposition Xrotation Yrotation Zrotation
								JOINT mixamorig:LeftHandThumb1
								{
									OFFSET 2.466141 -1.575058 2.682414
									CHANNELS 6 Xposition Yposition Zposition Xrotation Yrotation Zrotation
									JOINT mixamorig:LeftHandThumb2
									{
										OFFSET 3.229805 -1.864685 1.864681
										CHANNELS 6 Xposition Yposition Zposition Xrotation Yrotation Zrotation
										JOINT mixamorig:LeftHandThumb3
										{
											OFFSET 2.652565 -1.531494 1.531472
											CHANNELS 6 Xposition Yposition Zposition Xrotation Yrotation Zrotation
											JOINT mixamorig:LeftHandThumb4
											{
												OFFSET 1.954567 -1.128494 1.128492
												CHANNELS 6 Xposition Yposition Zposition Xrotation Yrotation Zrotation
												End Site
												{
													OFFSET 0.000000 2.523361 0.000000
												}
											}
										}
									}
								}
								JOINT mixamorig:LeftHandIndex1
								{
									OFFSET 9.109306 -0.517090 2.260073
									CHANNELS 6 Xposition Yposition Zposition Xrotation Yrotation Zrotation
									JOINT mixamorig:LeftHandIndex2
									{
										OFFSET 3.676407 0.000000 0.000029
										CHANNELS 6 Xposition Yposition Zposition Xrotation Yrotation Zrotation
										JOINT mixamorig:LeftHandIndex3
										{
											OFFSET 2.883064 0.000031 -0.000043
											CHANNELS 6 Xposition Yposition Zposition Xrotation Yrotation Zrotation
											JOINT mixamorig:LeftHandIndex4
											{
												OFFSET 2.392723 0.000031 0.000034
												CHANNELS 6 Xposition Yposition Zposition Xrotation Yrotation Zrotation
												End Site
												{
													OFFSET 0.000000 2.392715 0.000000
												}
											}
										}
									}
								}
								JOINT mixamorig:LeftHandMiddle1
								{
									OFFSET 9.533401 -0.000031 0.000014
									CHANNELS 6 Xposition Yposition Zposition Xrotation Yrotation Zrotation
									JOINT mixamorig:LeftHandMiddle2
									{
										OFFSET 3.698235 0.000000 0.000018
										CHANNELS 6 Xposition Yposition Zposition Xrotation Yrotation Zrotation
										JOINT mixamorig:LeftHandMiddle3
										{
											OFFSET 2.950928 -0.000046 0.000016
											CHANNELS 6 Xposition Yposition Zposition Xrotation Yrotation Zrotation
											JOINT mixamorig:LeftHandMiddle4
											{
												OFFSET 2.833900 -0.000046 -0.000010
												CHANNELS 6 Xposition Yposition Zposition Xrotation Yrotation Zrotation
												End Site
												{
													OFFSET 0.000000 2.833908 0.000000
												}
											}
										}
									}
								}
								JOINT mixamorig:LeftHandRing1
								{
									OFFSET 9.104530 -0.043945 -1.865085
									CHANNELS 6 Xposition Yposition Zposition Xrotation Yrotation Zrotation
									JOINT mixamorig:LeftHandRing2
									{
										OFFSET 3.154022 0.000000 0.000010
										CHANNELS 6 Xposition Yposition Zposition Xrotation Yrotation Zrotation
										JOINT mixamorig:LeftHandRing3
										{
											OFFSET 2.937675 -0.000046 -0.000007
											CHANNELS 6 Xposition Yposition Zposition Xrotation Yrotation Zrotation
											JOINT mixamorig:LeftHandRing4
											{
												OFFSET 2.647453 -0.000046 0.000000
												CHANNELS 6 Xposition Yposition Zposition Xrotation Yrotation Zrotation
												End Site
												{
													OFFSET 0.000000 2.647446 0.000000
												}
											}
										}
									}
								}
								JOINT mixamorig:LeftHandPinky1
								{
									OFFSET 8.077782 -0.488663 -3.806067
									CHANNELS 6 Xposition Yposition Zposition Xrotation Yrotation Zrotation
									JOINT mixamorig:LeftHandPinky2
									{
										OFFSET 3.600029 -0.000015 -0.000027
										CHANNELS 6 Xposition Yposition Zposition Xrotation Yrotation Zrotation
										JOINT mixamorig:LeftHandPinky3
										{
											OFFSET 2.114212 0.000031 -0.000003
											CHANNELS 6 Xposition Yposition Zposition Xrotation Yrotation Zrotation
											JOINT mixamorig:LeftHandPinky4
											{
												OFFSET 1.975685 0.000015 -0.000044
												CHANNELS 6 Xposition Yposition Zposition Xrotation Yrotation Zrotation
												End Site
												{
													OFFSET 0.000000 1.975677 0.000000
												}
											}
										}
									}
								}
							}
						}
					}
				}
				JOINT mixamorig:RightShoulder
				{
					OFFSET -4.569970 10.946182 -2.628017
					CHANNELS 6 Xposition Yposition Zposition Xrotation Yrotation Zrotation
					JOINT mixamorig:RightArm
					{
						OFFSET -10.592844 -0.524811 -2.232099
						CHANNELS 6 Xposition Yposition Zposition Xrotation Yrotation Zrotation
						JOINT mixamorig:RightForeArm
						{
							OFFSET -27.841522 -0.000031 0.000012
							CHANNELS 6 Xposition Yposition Zposition Xrotation Yrotation Zrotation
							JOINT mixamorig:RightHand
							{
								OFFSET -28.328835 0.000000 0.000056
								CHANNELS 6 Xposition Yposition Zposition Xrotation Yrotation Zrotation
								JOINT mixamorig:RightHandPinky1
								{
									OFFSET -8.076675 -0.488449 -3.806010
									CHANNELS 6 Xposition Yposition Zposition Xrotation Yrotation Zrotation
									JOINT mixamorig:RightHandPinky2
									{
										OFFSET -3.600037 0.000031 0.000051
										CHANNELS 6 Xposition Yposition Zposition Xrotation Yrotation Zrotation
										JOINT mixamorig:RightHandPinky3
										{
											OFFSET -2.114212 0.000015 0.000015
											CHANNELS 6 Xposition Yposition Zposition Xrotation Yrotation Zrotation
											JOINT mixamorig:RightHandPinky4
											{
												OFFSET -1.975685 -0.000015 -0.000001
												CHANNELS 6 Xposition Yposition Zposition Xrotation Yrotation Zrotation
												End Site
												{
													OFFSET 0.000000 1.975677 0.000000
												}
											}
										}
									}
								}
								JOINT mixamorig:RightHandRing1
								{
									OFFSET -9.103592 -0.043915 -1.865072
									CHANNELS 6 Xposition Yposition Zposition Xrotation Yrotation Zrotation
									JOINT mixamorig:RightHandRing2
									{
										OFFSET -3.154022 0.000031 0.000049
										CHANNELS 6 Xposition Yposition Zposition Xrotation Yrotation Zrotation
										JOINT mixamorig:RightHandRing3
										{
											OFFSET -2.937675 -0.000046 -0.000040
											CHANNELS 6 Xposition Yposition Zposition Xrotation Yrotation Zrotation
											JOINT mixamorig:RightHandRing4
											{
												OFFSET -2.647453 0.000031 -0.000002
												CHANNELS 6 Xposition Yposition Zposition Xrotation Yrotation Zrotation
												End Site
												{
													OFFSET 0.000000 2.647446 0.000000
												}
											}
										}
									}
								}
								JOINT mixamorig:RightHandMiddle1
								{
									OFFSET -9.532509 -0.000015 0.000017
									CHANNELS 6 Xposition Yposition Zposition Xrotation Yrotation Zrotation
									JOINT mixamorig:RightHandMiddle2
									{
										OFFSET -3.698235 0.000015 -0.000022
										CHANNELS 6 Xposition Yposition Zposition Xrotation Yrotation Zrotation
										JOINT mixamorig:RightHandMiddle3
										{
											OFFSET -2.950920 0.000000 -0.000000
											CHANNELS 6 Xposition Yposition Zposition Xrotation Yrotation Zrotation
											JOINT mixamorig:RightHandMiddle4
											{
												OFFSET -2.833900 0.000015 0.000054
												CHANNELS 6 Xposition Yposition Zposition Xrotation Yrotation Zrotation
												End Site
												{
													OFFSET 0.000000 2.833908 0.000000
												}
											}
										}
									}
								}
								JOINT mixamorig:RightHandIndex1
								{
									OFFSET -9.108284 -0.516785 2.260116
									CHANNELS 6 Xposition Yposition Zposition Xrotation Yrotation Zrotation
									JOINT mixamorig:RightHandIndex2
									{
										OFFSET -3.676407 0.000015 0.000032
										CHANNELS 6 Xposition Yposition Zposition Xrotation Yrotation Zrotation
										JOINT mixamorig:RightHandIndex3
										{
											OFFSET -2.883064 -0.000046 0.000040
											CHANNELS 6 Xposition Yposition Zposition Xrotation Yrotation Zrotation
											JOINT mixamorig:RightHandIndex4
											{
												OFFSET -2.392723 0.000031 0.000028
												CHANNELS 6 Xposition Yposition Zposition Xrotation Yrotation Zrotation
												End Site
												{
													OFFSET 0.000000 2.392715 0.000000
												}
											}
										}
									}
								}
								JOINT mixamorig:RightHandThumb1
								{
									OFFSET -2.464806 -1.572708 2.682626
									CHANNELS 6 Xposition Yposition Zposition Xrotation Yrotation Zrotation
									JOINT mixamorig:RightHandThumb2
									{
										OFFSET -3.229774 -1.864716 1.864719
										CHANNELS 6 Xposition Yposition Zposition Xrotation Yrotation Zrotation
										JOINT mixamorig:RightHandThumb3
										{
											OFFSET -2.652603 -1.531448 1.531446
											CHANNELS 6 Xposition Yposition Zposition Xrotation Yrotation Zrotation
											JOINT mixamorig:RightHandThumb4
											{
												OFFSET -1.954582 -1.128464 1.128507
												CHANNELS 6 Xposition Yposition Zposition Xrotation Yrotation Zrotation
												End Site
												{
													OFFSET 0.000000 2.523361 0.000000
												}
											}
										}
									}
								}
							}
						}
					}
				}
			}
		}
	}
	JOINT mixamorig:LeftUpLeg
	{
		OFFSET 8.207782 -6.751717 -1.599555
		CHANNELS 6 Xposition Yposition Zposition Xrotation Yrotation Zrotation
		JOINT mixamorig:LeftLeg
		{
			OFFSET -0.000001 -44.370472 0.284643
			CHANNELS 6 Xposition Yposition Zposition Xrotation Yrotation Zrotation
			JOINT mixamorig:LeftFoot
			{
				OFFSET 0.000001 -44.427872 -2.982191
				CHANNELS 6 Xposition Yposition Zposition Xrotation Yrotation Zrotation
				JOINT mixamorig:LeftToeBase
				{
					OFFSET -0.000003 -8.728670 10.710560
					CHANNELS 6 Xposition Yposition Zposition Xrotation Yrotation Zrotation
					JOINT mixamorig:LeftToe_End
					{
						OFFSET -0.000003 -0.000677 9.278137
						CHANNELS 6 Xposition Yposition Zposition Xrotation Yrotation Zrotation
						End Site
						{
							OFFSET 0.000000 9.278136 0.000000
						}
					}
				}
			}
		}
	}
	JOINT mixamorig:RightUpLeg
	{
		OFFSET -8.207796 -6.751663 -1.599559
		CHANNELS 6 Xposition Yposition Zposition Xrotation Yrotation Zrotation
		JOINT mixamorig:RightLeg
		{
			OFFSET 0.000000 -44.370537 0.286156
			CHANNELS 6 Xposition Yposition Zposition Xrotation Yrotation Zrotation
			JOINT mixamorig:RightFoot
			{
				OFFSET 0.000001 -44.427731 -2.983789
				CHANNELS 6 Xposition Yposition Zposition Xrotation Yrotation Zrotation
				JOINT mixamorig:RightToeBase
				{
					OFFSET -0.000002 -8.728668 10.710562
					CHANNELS 6 Xposition Yposition Zposition Xrotation Yrotation Zrotation
					JOINT mixamorig:RightToe_End
					{
						OFFSET -0.000002 -0.000676 9.278120
						CHANNELS 6 Xposition Yposition Zposition Xrotation Yrotation Zrotation
						End Site
						{
							OFFSET 0.000000 9.278120 0.000000
						}
					}
				}
			}
		}
	}
}
MOTION
Frames: 3
Frame Time: 0.033333
-2.229210 89.592461 -14.462631 12.975358 -20.239102 4.746691 0.000009 10.181598 0.131526 9.049458 -0.937513 -0.760575 0.000001 10.083474 -1.000799 14.386429 -1.723510 -0.410569 0.000002 9.100010 -1.373412 14.431059 -1.218830 -0.509738 -0.000001 16.671679 -2.516173 -4.275662 0.852070 -3.262960 0.000001 9.617855 1.685017 -44.624040 1.470103 0.860350 -0.000004 17.815170 2.584985 0.000000 -0.000001 0.000000 3.067558 6.409500 9.283556 0.000000 -0.000001 0.000000 -3.067553 6.409500 9.283546 0.000000 -0.000001 0.000000 4.570446 10.946007 -2.627992 1.019366 -0.314957 -4.219952 10.592380 -0.524580 -2.232118 -23.866947 -17.731992 -54.179554 27.841518 -0.000092 0.000037 -0.000506 -67.253225 -0.000551 28.328835 -0.000013 0.000046 44.810043 -10.169435 21.292664 2.466141 -1.575047 2.682414 -1.626803 -8.545613 4.336745 3.229805 -1.864707 1.864684 5.795743 32.508060 2.359767 2.652565 -1.531489 1.531472 0.482000 13.825922 3.675097 1.954563 -1.128477 1.128493 -0.000000 0.000000 -0.000002 9.109297 -0.517081 2.260076 0.215203 -1.708006 14.361236 3.676406 -0.000005 0.000026 3.644828 6.060260 -62.017899 2.883075 0.000042 -0.000042 0.977509 3.534188 -30.912429 2.392728 0.000031 0.000033 -0.000003 -0.000001 -0.000002 9.533399 -0.000036 0.000014 0.215681 -1.709873 14.377232 3.698238 0.000004 0.000016 3.646551 6.061165 -62.034046 2.950935 -0.000020 0.000015 0.977500 3.534184 -30.912425 2.833887 -0.000059 -0.000010 -0.000001 0.000000 -0.000001 9.104524 -0.043931 -1.865083 0.215203 -1.708006 14.361236 3.154021 -0.000016 0.000013 3.644828 6.060260 -62.017899 2.937676 -0.000045 -0.000005 0.977509 3.534187 -30.912432 2.647429 -0.000046 0.000001 0.000001 -0.000001 0.000001 8.077771 -0.488664 -3.806067 -0.807848 2.215372 14.874357 3.600041 -0.000013 -0.000027 3.662351 1.981573 -62.267433 2.114231 0.000021 -0.000000 0.977491 3.534165 -30.912425 1.975687 0.000017 -0.000046 0.000001 -0.000001 -0.000001 -4.569971 10.946187 -2.628020 0.963015 -0.281641 8.699725 -10.592844 -0.524798 -2.232096 -21.122136 29.581413 65.831774 -27.841515 -0.000037 0.000011 0.000509 82.842244 -0.000502 -28.328838 0.000010 0.000074 30.869829 3.407523 -0.595756 -8.076674 -0.488431 -3.806015 0.171302 1.533917 -12.756623 -3.600042 0.000057 0.000048 3.276695 -5.886527 58.161567 -2.114210 0.000022 0.000013 0.871109 -3.367812 28.996557 -1.975682 -0.000013 0.000000 -0.000001 -0.000000 -0.000001 -9.103588 -0.043899 -1.865077 0.171659 1.535469 -12.756638 -3.154011 0.000022 0.000040 3.276696 -5.888112 58.161656 -2.937663 -0.000042 -0.000046 0.871112 -3.367814 28.996561 -2.647464 0.000032 -0.000005 -0.000000 -0.000001 -0.000002 -9.532507 -0.000008 0.000010 0.171659 1.535469 -12.756637 -3.698226 -0.000006 -0.000022 3.276692 -5.888114 58.161656 -2.950903 0.000013 0.000004 0.872091 -3.369580 28.996612 -2.833908 0.000016 0.000058 -0.000001 -0.000001 0.000000 -9.108285 -0.516783 2.260115 0.171659 1.535469 -12.756638 -3.676406 0.000015 0.000026 3.276696 -5.888112 58.161656 -2.883067 -0.000047 0.000041 0.871112 -3.367814 28.996557 -2.392727 0.000028 0.000019 -0.000002 0.000002 -0.000002 -2.464806 -1.572701 2.682628 -1.931151 8.121308 -4.781880 -3.229766 -1.864693 1.864723 6.899282 -35.264663 -1.733644 -2.652605 -1.531433 1.531446 -0.135346 -13.144713 -3.433999 -1.954579 -1.128474 1.128506 -0.000000 -0.000000 0.000002 8.207778 -6.751717 -1.599553 -55.123725 3.947400 23.924865 -0.000001 -44.370472 0.284643 48.649863 -2.396297 2.845809 0.000001 -44.427876 -2.982189 -7.308178 2.427407 -20.541376 -0.000002 -8.728671 10.710560 -0.273916 -0.000002 0.000001 -0.000003 -0.000677 9.278137 0.000000 0.000000 0.000000 -8.207797 -6.751662 -1.599556 -53.291742 -3.902077 -19.715201 0.000001 -44.370529 0.286154 59.314811 -0.005922 1.043279 0.000002 -44.427727 -2.983787 -20.217329 -2.258179 10.316605 0.000001 -8.728668 10.710561 -0.005839 -0.000005 0.000002 -0.000000 -0.000677 9.278120 0.000000 0.000002 0.000000 
-2.095904 89.783295 -13.910365 13.456586 -20.700299 4.339303 0.000009 10.181592 0.131520 8.903194 -1.063883 -0.691749 0.000001 10.083456 -1.000803 14.206880 -1.933250 -0.348559 -0.000001 9.100028 -1.373425 14.254452 -1.452575 -0.444907 0.000003 16.671669 -2.516172 -3.912322 0.955288 -2.730702 -0.000003 9.617880 1.685003 -44.353684 2.474396 0.837543 -0.000000 17.815155 2.584988 0.000000 0.000002 0.000000 3.067560 6.409515 9.283556 0.000000 0.000002 0.000000 -3.067551 6.409515 9.283548 0.000000 0.000002 0.000000 4.570448 10.945984 -2.627990 1.077264 -0.813116 -3.962186 10.592365 -0.524583 -2.232121 -21.786219 -18.109352 -53.686318 27.841515 -0.000084 0.000032 -0.000505 -67.724030 -0.000538 28.328844 -0.000016 0.000029 44.089961 -10.417868 20.158969 2.466141 -1.575047 2.682414 -1.626821 -8.545639 4.336733 3.229797 -1.864691 1.864680 5.795744 32.508050 2.359771 2.652562 -1.531478 1.531472 0.482000 13.825923 3.675095 1.954565 -1.128496 1.128492 -0.000000 -0.000001 0.000001 9.109297 -0.517052 2.260074 0.215203 -1.708008 14.361238 3.676425 -0.000020 0.000025 3.644846 6.060268 -62.017872 2.883083 0.000049 -0.000046 0.977492 3.534184 -30.912436 2.392725 0.000032 0.000034 -0.000001 -0.000001 -0.000001 9.533402 -0.000023 0.000016 0.215679 -1.709875 14.377234 3.698234 0.000003 0.000015 3.646543 6.061167 -62.034059 2.950920 -0.000024 0.000017 0.977498 3.534188 -30.912432 2.833878 -0.000061 -0.000012 -0.000001 0.000001 -0.000000 9.104524 -0.043933 -1.865083 0.215203 -1.708008 14.361238 3.154027 -0.000006 0.000012 3.644844 6.060267 -62.017872 2.937683 -0.000027 -0.000007 0.977493 3.534187 -30.912436 2.647437 -0.000046 0.000002 -0.000001 -0.000001 0.000000 8.077772 -0.488668 -3.806065 -0.807850 2.215368 14.874357 3.600045 -0.000005 -0.000030 3.662353 1.981571 -62.267426 2.114212 0.000025 -0.000001 0.977488 3.534186 -30.912453 1.975684 0.000017 -0.000040 -0.000001 -0.000000 0.000000 -4.569969 10.946182 -2.628024 1.027157 -0.094408 8.870003 -10.592844 -0.524781 -2.232098 -21.053563 28.838052 66.808628 -27.841516 -0.000033 0.000014 0.000401 82.469897 -0.000383 -28.328842 -0.000004 0.000060 32.415764 3.370762 -0.697958 -8.076677 -0.488472 -3.806005 0.141603 1.396133 -11.594787 -3.600051 0.000039 0.000052 3.276680 -5.886520 58.161595 -2.114209 0.000020 0.000013 0.871095 -3.367821 28.996571 -1.975692 -0.000016 0.000003 -0.000001 -0.000000 -0.000000 -9.103592 -0.043920 -1.865068 0.141933 1.397685 -11.594799 -3.154039 0.000020 0.000046 3.276680 -5.888102 58.161697 -2.937662 -0.000044 -0.000039 0.871097 -3.367816 28.996574 -2.647448 0.000030 -0.000004 -0.000000 0.000000 0.000001 -9.532498 -0.000018 0.000020 0.141934 1.397685 -11.594801 -3.698239 0.000015 -0.000028 3.276675 -5.888102 58.161697 -2.950926 0.000000 -0.000006 0.872084 -3.369587 28.996619 -2.833897 0.000017 0.000052 0.000002 0.000002 0.000002 -9.108275 -0.516787 2.260125 0.141933 1.397685 -11.594799 -3.676421 0.000014 0.000031 3.276680 -5.888102 58.161697 -2.883082 -0.000037 0.000036 0.871097 -3.367816 28.996571 -2.392723 0.000028 0.000033 -0.000002 0.000002 -0.000000 -2.464806 -1.572705 2.682637 -1.931164 8.121290 -4.781876 -3.229769 -1.864700 1.864731 6.899259 -35.264417 -1.733655 -2.652604 -1.531454 1.531444 -0.135354 -13.144597 -3.433971 -1.954583 -1.128462 1.128507 -0.000001 0.000002 -0.000003 8.207780 -6.751707 -1.599563 -55.358690 3.514088 24.280103 -0.000000 -44.370468 0.284648 49.089659 -1.409412 2.833049 -0.000001 -44.427876 -2.982192 -7.315688 2.430994 -20.482581 -0.000002 -8.728670 10.710562 -0.368735 -0.000001 -0.000004 -0.000003 -0.000677 9.278133 -0.000000 0.000000 0.000000 -8.207797 -6.751656 -1.599562 -53.058918 -4.528236 -18.919836 -0.000001 -44.370537 0.286153 58.568114 0.339377 0.438509 0.000002 -44.427731 -2.983785 -19.937261 -2.402531 11.126232 -0.000005 -8.728668 10.710559 0.012097 0.000003 0.000006 -0.000003 -0.000676 9.278120 0.000000 0.000001 -0.000000 
-1.773705 89.961227 -13.392622 14.271810 -21.087104 3.793035 0.000011 10.181584 0.131522 8.805033 -1.265866 -0.602750 -0.000001 10.083475 -1.000807 14.133027 -2.258663 -0.256542 0.000000 9.100019 -1.373420 14.183577 -1.809738 -0.352049 -0.000001 16.671690 -2.516170 -3.796087 1.118127 -1.844990 -0.000005 9.617888 1.685021 -44.566356 4.126620 0.729932 -0.000001 17.815170 2.584987 -0.000000 -0.000002 0.000000 3.067561 6.409515 9.283556 -0.000000 -0.000002 -0.000000 -3.067552 6.409515 9.283548 -0.000000 -0.000002 -0.000000 4.570444 10.945997 -2.627993 1.141751 -1.514021 -3.494755 10.592383 -0.524585 -2.232120 -19.311730 -17.615181 -52.677318 27.841515 -0.000098 0.000036 -0.000540 -68.490767 -0.000589 28.328842 -0.000026 0.000038 43.446038 -10.874641 19.292583 2.466139 -1.575049 2.682414 -1.626823 -8.545630 4.336740 3.229806 -1.864702 1.864680 5.795743 32.508053 2.359768 2.652568 -1.531473 1.531472 0.481999 13.825922 3.675096 1.954568 -1.128494 1.128492 -0.000000 -0.000000 -0.000001 9.109297 -0.517081 2.260075 0.215204 -1.708008 14.361236 3.676420 -0.000005 0.000026 3.644840 6.060279 -62.017933 2.883052 0.000054 -0.000041 0.977513 3.534192 -30.912459 2.392720 0.000019 0.000039 -0.000003 0.000001 0.000001 9.533402 -0.000036 0.000015 0.215681 -1.709872 14.377232 3.698233 0.000004 0.000021 3.646554 6.061183 -62.034093 2.950912 -0.000020 0.000017 0.977500 3.534182 -30.912456 2.833906 -0.000048 -0.000010 0.000000 -0.000000 0.000001 9.104524 -0.043931 -1.865085 0.215204 -1.708008 14.361236 3.154037 -0.000007 0.000008 3.644840 6.060279 -62.017926 2.937668 -0.000040 -0.000008 0.977513 3.534191 -30.912459 2.647449 -0.000045 0.000004 -0.000002 0.000003 0.000001 8.077772 -0.488663 -3.806066 -0.807850 2.215371 14.874357 3.600028 -0.000013 -0.000028 3.662350 1.981581 -62.267467 2.114221 0.000019 0.000001 0.977500 3.534178 -30.912456 1.975684 0.000003 -0.000043 0.000000 -0.000000 0.000000 -4.569972 10.946176 -2.628025 1.127457 0.424836 8.942539 -10.592851 -0.524809 -2.232085 -21.135819 28.356907 67.404746 -27.841530 -0.000038 0.000013 0.000152 81.998074 -0.000129 -28.328842 -0.000005 0.000062 33.281121 3.469862 -0.873615 -8.076684 -0.488471 -3.806008 0.113586 1.251728 -10.382508 -3.600039 0.000050 0.000050 3.276699 -5.886527 58.161574 -2.114232 0.000018 0.000017 0.871107 -3.367819 28.996547 -1.975665 -0.000015 -0.000000 -0.000001 0.000001 0.000001 -9.103595 -0.043922 -1.865069 0.113871 1.253291 -10.382520 -3.154037 0.000023 0.000044 3.276709 -5.888117 58.161670 -2.937670 -0.000042 -0.000039 0.871107 -3.367818 28.996550 -2.647435 0.000030 -0.000002 -0.000000 0.000002 0.000002 -9.532508 0.000005 0.000020 0.113871 1.253291 -10.382520 -3.698237 0.000026 -0.000021 3.276709 -5.888115 58.161670 -2.950911 -0.000003 -0.000003 0.872093 -3.369582 28.996608 -2.833910 0.000013 0.000056 -0.000001 0.000001 0.000001 -9.108286 -0.516788 2.260124 0.113871 1.253291 -10.382520 -3.676413 0.000008 0.000029 3.276709 -5.888117 58.161670 -2.883067 -0.000063 0.000039 0.871107 -3.367818 28.996544 -2.392726 0.000029 0.000029 0.000001 -0.000001 -0.000002 -2.464815 -1.572728 2.682631 -1.931164 8.121277 -4.781882 -3.229769 -1.864694 1.864721 6.899345 -35.265448 -1.733692 -2.652600 -1.531444 1.531448 -0.135320 -13.145114 -3.434020 -1.954578 -1.128472 1.128507 -0.000001 -0.000001 0.000001 8.207777 -6.751721 -1.599554 -56.118012 2.872150 24.609173 0.000000 -44.370468 0.284649 49.667370 -0.400054 2.910049 0.000001 -44.427864 -2.982192 -7.234880 2.389229 -20.222699 -0.000002 -8.728671 10.710562 -0.465075 -0.000000 0.000002 -0.000002 -0.000677 9.278139 -0.000000 0.000000 -0.000000 -8.207791 -6.751672 -1.599557 -53.036525 -5.157758 -17.997531 -0.000001 -44.370537 0.286150 57.577197 0.514559 -0.096221 0.000004 -44.427727 -2.983781 -19.342507 -2.542129 12.107717 0.000003 -8.728669 10.710559 0.044690 -0.000010 -0.000003 -0.000002 -0.000676 9.278120 0.000000 -0.000001 -0.000000 
